<?xml version="1.0"?><svg version="1.2" baseProfile="tiny-ps" viewBox="0 0 48 48" xmlns="http://www.w3.org/2000/svg" xmlns:xlink="http://www.w3.org/1999/xlink"><title>Simo Toivanen</title><g><g fill="#f7e1f9" transform="matrix(.1 0 0 -.1 0 48)"><path d="M16 464 0 449V31l16-15L31 0h418l15 16 16 15v418l-16 15-15 16H31l-15-16z"/></g><g fill="#e9d7eb" transform="matrix(.1 0 0 -.1 0 48)"><path d="M16 464 0 449V31l16-15L31 0h418l15 16 16 15v418l-16 15-15 16H31l-15-16zm167-104h17v-20l-43 6-43 6-17-17c-9-9-17-25-17-36v-20l48-21c26-11 55-27 65-36l17-15v-54l-17-15c-10-9-28-19-40-22l-22-7-36 7c-19 3-35 10-35 15v8l49-6 48-5 16 22 16 22-8 22-8 21-53 20-53 20-8 24-9 23 12 26 13 26 25 7c14 4 34 6 45 3 11-2 28-4 38-4zm247-10v-10h-80V120h-30v220h-80v20h190v-10z"/></g><g fill="#c8bcc9" transform="matrix(.1 0 0 -.1 0 48)"><path d="M16 464 0 449V31l16-15L31 0h418l15 16 16 15v418l-16 15-15 16H31l-15-16zm182-116 3-17-33 9-33 10-17-6c-10-3-23-14-29-26l-11-20 16-17c9-10 34-23 56-30l39-12 16-22c8-12 15-30 15-40v-18l-25-24-24-25h-48c-26 0-54 4-62 9l-14 9 7 10 6 10 33-10 32-10 28 11 27 11v49l-22 15c-12 9-30 16-39 16s-28 9-43 21l-26 20v53l22 23 22 24 51-3 50-3 3-17zm232 7v-15h-80V110h-30v230h-80v30h190v-15z"/></g><g fill="#b2aab3" transform="matrix(.1 0 0 -.1 0 48)"><path d="M16 464 0 449V31l16-15L31 0h418l15 16 16 15v418l-16 15-15 16H31l-15-16zm181-102 12-8-7-9-7-10H95v-59l42-16c22-8 50-24 62-34l21-19v-51l-22-23-21-23h-48c-56 0-79 7-79 26v13l50-6 50-6 15 13c8 7 15 21 15 32v19l-57 26c-66 29-73 36-73 80v32l22 15 22 16h46c25 0 50-4 57-8zm233-7v-15h-80V109l-17 3-18 3-3 113-3 112h-79v8c0 19 17 22 107 22h93v-15z"/></g><g fill="#9a979b" transform="matrix(.1 0 0 -.1 0 48)"><path d="M16 464 0 449V31l16-15L31 0h418l15 16 16 15v418l-16 15-15 16H31l-15-16zm185-100 8-5-5-14-6-15-39 6-39 7-15-13c-8-7-15-21-15-31v-19l28-11c15-6 42-17 59-25l32-13 7-26 6-25-6-26-7-25-36-16-37-15-40 9-41 8-3 16-3 16 57-1 56-1 12 17 11 18-18 17c-9 9-36 24-59 33l-42 15-15 26-14 25 14 29 14 29 25 14 25 13 39-6c22-3 43-8 47-11zm239-8v-15l-42-3-43-3-3-112-3-113h-39v230h-80v30h210v-14z"/></g><g fill="#8a8a8a" transform="matrix(.1 0 0 -.1 0 48)"><path d="M16 464 0 449V31l16-15L31 0h418l15 16 16 15v418l-16 15-15 16H31l-15-16zm175-94 19-11v-31l-43 6-42 7-20-15-20-15 11-17 10-17 40-14c21-8 48-22 58-33l19-19v-64l-27-24-27-23h-39c-21 0-50 4-64 9l-24 10 5 19 5 20 35-10 35-10 23 6 23 6 6 16c9 23-1 33-53 56-25 10-54 27-63 35l-18 16v26c1 63 89 104 151 71zm244-15v-20l-37-3-37-3-3-112-3-112-22-3-23-3v231h-80v18c0 10 3 22 7 26l7 7 96-3 95-3v-20z"/></g></g></svg>